HIERARCHY
ROOT Hips
{
	OFFSET 0.000000 0.000000 0.000000 
	CHANNELS 6 Xposition Yposition Zposition Zrotation Yrotation Xrotation
	JOINT LeftUpLeg
	{
		OFFSET 1.363060 -1.794630 0.839290 
		CHANNELS 3 Zrotation Yrotation Xrotation
		JOINT LeftLeg
		{
			OFFSET 2.448110 -6.726130 0.000000 
			CHANNELS 3 Zrotation Yrotation Xrotation
			JOINT LeftFoot
			{
				OFFSET 2.562200 -7.039590 0.000000 
				CHANNELS 3 Zrotation Yrotation Xrotation
				JOINT LeftToeBase
				{
					OFFSET 0.157640 -0.433110 2.322550 
					CHANNELS 3 Zrotation Yrotation Xrotation
					End Site
					{
						OFFSET 0.000000 0.000000 0.000000 
					}
				}
			}
		}
	}
	JOINT RightUpLeg
	{
		OFFSET -1.305520 -1.794630 0.839290 
		CHANNELS 3 Zrotation Yrotation Xrotation
		JOINT RightLeg
		{
			OFFSET -2.542530 -6.985550 0.000000 
			CHANNELS 3 Zrotation Yrotation Xrotation
			JOINT RightFoot
			{
				OFFSET -2.568260 -7.056230 0.000000 
				CHANNELS 3 Zrotation Yrotation Xrotation
				JOINT RightToeBase
				{
					OFFSET -0.164730 -0.452590 2.363150 
					CHANNELS 3 Zrotation Yrotation Xrotation
					End Site
					{
						OFFSET 0.000000 0.000000 0.000000 
					}
				}
			}
		}
	}
	JOINT Spine
	{
		OFFSET 0.028270 2.035590 -0.193380 
		CHANNELS 3 Zrotation Yrotation Xrotation
		JOINT Spine1
		{
			OFFSET 0.056720 2.048850 -0.042750 
			CHANNELS 3 Zrotation Yrotation Xrotation
			JOINT Neck1
			{
				OFFSET -0.054170 1.746240 0.172020 
				CHANNELS 3 Zrotation Yrotation Xrotation
				JOINT Head
				{
					OFFSET 0.104070 1.761360 -0.123970 
					CHANNELS 3 Zrotation Yrotation Xrotation
					End Site
					{
						OFFSET 0.000000 0.000000 0.000000 
					}
				}
			}
			JOINT LeftArm
			{
				OFFSET 3.362410 1.200890 -0.311210 
				CHANNELS 3 Zrotation Yrotation Xrotation
				JOINT LeftForeArm
				{
					OFFSET 4.983000 -0.000000 -0.000000 
					CHANNELS 3 Zrotation Yrotation Xrotation
					JOINT LeftHand
					{
						OFFSET 3.483560 -0.000000 -0.000000 
						CHANNELS 3 Zrotation Yrotation Xrotation
						JOINT LeftHandIndex1
						{
							OFFSET 0.715260 -0.000000 -0.000000 
							CHANNELS 3 Zrotation Yrotation Xrotation
							End Site
							{
								OFFSET 0.000000 0.000000 0.000000 
							}
						}
					}
				}
			}
			JOINT RightArm
			{
				OFFSET -3.136600 1.374050 -0.404650 
				CHANNELS 3 Zrotation Yrotation Xrotation
				JOINT RightForeArm
				{
					OFFSET -5.241900 -0.000000 -0.000000 
					CHANNELS 3 Zrotation Yrotation Xrotation
					JOINT RightHand
					{
						OFFSET -3.444170 -0.000000 -0.000000 
						CHANNELS 3 Zrotation Yrotation Xrotation
						JOINT RightHandIndex1
						{
							OFFSET -0.622530 -0.000000 -0.000000 
							CHANNELS 3 Zrotation Yrotation Xrotation
							End Site
							{
								OFFSET 0.000000 0.000000 0.000000 
							}
						}
					}
				}
			}
		}
	}
}
MOTION
Frames: 6
Frame Time: 0.041667
1.530047 17.995110 -0.091096 -151.869814 89.741435 -138.699723 -14.781022 4.199585 -18.382872 1.140126 5.561036 16.685029 1.501626 -4.457794 0.974896 1.835100 -8.513800 -24.286000 20.688296 -4.758656 -10.483250 -0.466458 -0.433152 3.456257 0.258346 -1.875332 -0.694663 -0.674700 5.252400 -14.629800 3.896048 -3.053490 -2.037603 -3.423600 -1.719680 5.487538 13.332429 -22.335665 35.375840 1.144800 -7.589200 15.446700 -86.390068 2.679387 40.721853 23.453276 -29.044609 -5.239388 -0.248350 2.682952 -11.585058 -7.125000 0.000000 0.000000 86.565569 2.755624 11.058757 -32.037726 39.380969 -7.150483 3.851308 0.074420 -153.102337 7.125000 0.000000 0.000000 
1.531215 17.995305 -0.091875 -131.494824 89.050078 -118.249733 -14.695956 4.104133 -18.366775 1.167729 5.514422 16.764996 1.540925 -4.721319 0.858838 1.612700 -8.007900 -22.738000 20.801523 -4.885013 -10.579898 -0.456137 -0.405468 3.217104 0.257772 -1.962639 -0.608290 -0.683000 5.283900 -14.720100 4.069981 -3.190134 -2.138578 -3.463273 -1.841831 5.472165 13.362742 -22.332779 35.392546 1.163900 -7.585700 15.458500 -86.386735 2.647860 40.697116 23.471330 -29.070309 -5.249518 -0.262540 2.684875 -11.452954 -7.125000 0.000000 0.000000 86.558007 2.739072 11.172533 -32.041423 39.381293 -7.147706 3.846868 0.071114 -153.121465 7.125000 0.000000 0.000000 
1.534427 17.995013 -0.094989 -95.870169 88.532491 -82.629979 -14.668713 4.146083 -18.508172 1.141788 5.594967 16.754663 1.576224 -4.847866 0.765810 1.395200 -7.472700 -21.123500 20.827794 -4.967419 -10.404210 -0.460360 -0.298759 3.112498 0.264935 -1.943005 -0.539727 -0.687300 5.300300 -14.767200 4.267248 -3.072339 -2.162576 -3.564252 -1.714543 5.430687 13.304141 -22.309782 35.420172 1.153500 -7.587000 15.458800 -86.395771 2.653610 40.637578 23.478236 -29.078660 -5.251006 -0.272120 2.678121 -11.382119 -7.125000 0.000000 0.000000 86.552267 2.747616 11.229777 -32.036702 39.384969 -7.150791 3.856311 0.067905 -153.159210 7.125000 0.000000 0.000000 
1.539974 17.994624 -0.098590 -53.875070 88.401644 -40.630751 -14.819841 4.189041 -18.831556 1.079641 5.791509 16.705868 1.552685 -4.570561 0.816048 1.602500 -7.983700 -22.664600 20.630633 -5.048790 -9.935289 -0.462169 -0.044480 2.894021 0.294280 -1.889955 -0.390766 -0.688400 5.304500 -14.779100 4.267027 -2.780159 -2.146446 -3.553063 -1.407110 5.429205 13.233103 -22.272250 35.452955 1.147000 -7.589900 15.462300 -86.464637 2.646690 40.595483 23.474414 -29.068495 -5.246710 -0.257299 2.673192 -11.373143 -7.125000 0.000000 0.000000 86.491321 2.752640 11.347340 -32.082095 39.426682 -7.174204 3.859016 0.061471 -153.307703 7.125000 0.000000 0.000000 
1.547858 17.992872 -0.102386 -155.686824 89.686822 -142.419267 -14.702903 4.174694 -18.543938 1.147575 5.624271 16.801671 1.548083 -4.654330 0.904387 1.876300 -8.603400 -24.562500 20.762263 -5.152020 -9.940209 -0.426751 -0.016139 2.385714 0.317819 -2.184706 -0.292445 -0.704800 5.365900 -14.955100 4.042286 -3.129064 -2.190411 -3.449622 -1.741223 5.484520 13.296854 -22.280433 35.423829 1.170400 -7.586200 15.461600 -86.506890 2.615082 40.491532 23.521185 -29.125637 -5.268343 -0.262110 2.673579 -11.231993 -7.125000 0.000000 0.000000 86.429122 2.660793 11.570607 -32.187250 39.495781 -7.208368 3.837349 0.068415 -153.550328 7.125000 0.000000 0.000000 
1.553113 17.992385 -0.104722 -10.631480 88.837920 2.629295 -14.860241 4.227320 -18.907558 1.070076 5.859546 16.728473 1.539361 -4.401155 0.667701 2.015700 -8.898600 -25.478700 20.542298 -5.161941 -9.404778 -0.432537 0.262324 2.195907 0.341168 -2.054109 -0.132295 -0.711400 5.390500 -15.025600 4.098508 -2.725437 -2.173179 -3.464256 -1.343117 5.469827 13.234099 -22.233768 35.478031 1.175400 -7.586300 15.475100 -86.576424 2.637478 40.410551 23.558261 -29.163103 -5.283393 -0.268775 2.668482 -11.148417 -7.125000 0.000000 0.000000 86.397981 2.677673 11.679160 -32.221404 39.528213 -7.220107 3.827748 0.068871 -153.551704 7.125000 0.000000 0.000000 
